<svg xmlns="http://www.w3.org/2000/svg" viewBox="0 0 81.3 80.1">
  <style>path{fill:#005f9d}@media (prefers-color-scheme:dark){path{fill:#fff}}</style>
  <path d="M52.3 55.5c-.2 1-.5 1.8-.9 2.6-.1.3-.2.6-.2.8-.6.6-1 1-1.2 1.1-3.4 2.8-6 4.2-10.1 5.5-1.5.5-4.7 1.3-8.7 1.2L25 70.1c7.6 1.6 13.8.1 16.2-.7 4.6-1.5 7.7-3.2 11.4-6.3.8-.6 4.7-4 7.5-9.4.5-1 1-2.1 1.4-3.2l-9.2 5zM30.5 12.2h1.9c-.7.2-1.4.4-2.1.7l5.6 3c4.4-.1 8.7 1.8 11.7 4.9l-2.1.3 9.4 5c0-.1 0-.2-.1-.3.4.2.7.5 1 .8l6.3 3.3c-.1-.2-.1-.5-.2-.7-.1-.1-.1-.3-.2-.4-.1-.2-.1-.4-.2-.6-1.8-5.1-5.3-9.5-9.6-13-.1-.2-.2-.3-.4-.4C44.8 9.6 38 8.5 34.6 8.2h-.5c-2.2-.2-4.3-.2-6.4.1-.1 0-.2 0-.4.1-.9.1-1.7.3-2.3.4-.6.1-1.1.3-1.6.4l5.8 3.1c.5-.1.9-.1 1.3-.1zM6.1 49.7c-.9-2.2-1.5-4.9-1.7-6-.3-2.5-.3-2.5-.3-5 0-.8.1-1.9.2-2.8.3-1.9.7-4.1 2-7.1v-8.1c-1 1.3-1.9 2.8-2.8 4.4C1.2 29.6.6 32.9.3 35.3c-.2 1.1-.3 2.4-.3 3.4 0 2.7 0 2.7.3 5.4.2 1.6 1.1 5.3 2.3 7.9.9 2 1.8 3.6 2.9 5.1.1.2.2.3.3.4.2.3.4.5.5.7v-9c-.1.2-.1.3-.2.5z"/>
  <path d="M53.3 35c-.4.6-.9 1.2-1.4 1.8 1.5 2.8 2.7 5.6 3.5 8.4.3-.4.6-.8.9-1.3 2.5-4.1 2.9-9 1.3-14-.1-.2-.2-.3-.3-.5-.1-.4-.3-.8-.5-1.2-.2-.2-.3-.4-.5-.6-.2-.4-.4-.7-.6-1l-.8-.6c.6 3.2.1 6.3-1.6 9zM28.4 12.4h-.3c-1.4.2-2.7.5-3.9.9 1.1.2 2.2.6 3.3 1 .9-.6 1.8-1.1 2.8-1.5l-1-.5c-.3 0-.6 0-.9.1zm33.1 38.2l19.7-10.5-19.1-10.3c2.7 8.3 1.5 15.5-.6 20.8zM34.4 15.9c-.8.1-1.6.3-2.3.5 2.7 1.5 5.4 3.4 8 5.7 1.8-.6 3.6-1 5.3-1.2l-9.6-5.1c-.4 0-.9 0-1.4.1zm9.3 39.9c-10.9 1.5-22.6-3.6-29.3-12-2.5 3-4.3 6.1-4.9 8.7-.2 1.1-.3 2-.2 2.8.4.6.9 1.2 1.5 1.9 1.6 1.8 6 6.4 13.3 8.4 2.6.7 5 1 7.2 1.1l21.1-11.3c.2-.8.3-1.7.3-2.6-2.7 1.6-5.7 2.6-9 3zM15 37.3c2.5-2.4 5.4-4.7 8.5-6.8-.2-.4-.4-.9-.6-1.4-1.4-3.9-1-7.8 1-11 .1-.2.3-.4.4-.6-2.3-.7-4.4-.9-6.3-.6-1.2 1-2.2 2.2-3 3.5-1.5 2.4-2.3 5.2-2.3 8.1 0 2 .4 4.1 1.1 6.2.4.9.8 1.7 1.2 2.6zm11.8-9.6c.1.2.1.3.2.5 2.8-1.7 5.8-3.2 8.8-4.4-2.5-2-5.1-3.6-7.5-4.8-.3.4-.6.7-.9 1.1-1.4 2.2-1.6 4.9-.6 7.6zm16 9.4c1.4-.2 2.7-.6 3.8-1.2-2-3.2-4.6-6.3-7.4-9l-1.5.6c-2.9 1.2-5.8 2.6-8.6 4.3 3.2 3.7 8.6 6 13.7 5.3zM15.5 12.5c2.2-1.2 4.3-2.3 8-3.3L6.3 0v20.7c4-5.2 8.6-7.8 9.2-8.2zm34.3 20.3c1.3-2.2 1.6-4.9.6-7.6-.1-.2-.2-.5-.3-.7-1.9 0-4.1.3-6.5.9 2.3 2.4 4.4 5 6.1 7.6.1 0 .1-.1.1-.2z"/>
  <path d="M43.2 51.8c3.4-.5 6.4-1.7 8.9-3.4-.6-2.9-1.8-6-3.4-9.1-1.6.9-3.4 1.5-5.3 1.7-6.6.9-13.6-2.1-17.7-7.2-3.1 2.2-6 4.5-8.4 7 5.7 7.7 16.1 12.4 25.9 11zM12 40.4c-.8-1.4-1.5-2.8-2-4.3-1.5-4.2-1.7-8.5-.8-12.4-.7 1-1.4 2.1-2 3.3-.3.7-.6 1.3-.9 1.9v20.3c1.2-2.9 3.1-5.9 5.7-8.8zm45.9 8.3c-.4.5-.9.9-1.3 1.4.1.5.1 1 .1 1.5.4-.9.8-1.9 1.2-2.9zM7.6 59.9c-.5-.6-.9-1.1-1.3-1.7v21.9l18.7-10c-.7-.1-1.4-.3-2.1-.5-8.4-2.4-13.5-7.6-15.3-9.7z"/>
</svg>
