<svg enable-background="new 0 0 511.996 511.996" height="512" viewBox="0 0 511.996 511.996" width="512" xmlns="http://www.w3.org/2000/svg"><g><path d="m313.759 343.218h-119.995c-46.458 0-84.119 37.661-84.119 84.119v14.214c0 6.743 71.525 70.444 143.583 70.444s144.649-63.701 144.649-70.444v-14.214c.001-46.458-37.66-84.119-84.118-84.119z" fill="#da4a54"/><path d="m246.035 354.357h15.453v157.636h-15.453z" fill="#c32430"/><path d="m135.822 427.337v60.244c0 13.485 10.941 24.415 24.426 24.415h-26.177c-13.495 0-24.425-10.93-24.425-24.415v-60.244c0-46.461 37.663-84.113 84.123-84.113h26.177c-46.461-.001-84.124 37.652-84.124 84.113z" fill="#c32430"/><path d="m297.381 354.347c28.126 28.126 10.359 59.536 10.359 59.536-34.597-7.095-53.979-25.889-53.979-25.889s-19.382 18.794-53.979 25.889c0 0-17.767-31.411 10.359-59.536" fill="#c32430"/><path d="m297.359 353.674c.018.224.018.448.018.673 0 18.581-19.523 33.647-43.611 33.647s-43.62-15.066-43.62-33.647c0-.224 0-.448.018-.673" fill="#f1b986"/><path d="m166.965 441.55v23.791h44.401c23.12 0 41.862 18.742 41.862 41.862v4.79h-119.164c-13.486 0-24.419-10.933-24.419-24.419v-46.024z" fill="#f1d0a5"/><path d="m133.991 511.994h26.177c-13.448-.043-24.346-10.955-24.346-24.413v-46.031h-26.176v46.031c-.001 13.458 10.887 24.37 24.345 24.413z" fill="#f1b986"/><path d="m340.558 441.55v23.791h-44.401c-23.12 0-41.862 18.742-41.862 41.862v4.79h119.165c13.486 0 24.419-10.933 24.419-24.419v-46.024z" fill="#f1d0a5"/><path d="m340.558 441.246h24.095v24.095h-24.095z" fill="#f1b986"/><path d="m340.558 425.99h24.095v15.256h-24.095z" fill="#c32430"/><path d="m296.161 465.338h19.388c-23.127 0-41.866 18.749-41.866 41.866v4.79h-19.388v-4.79c0-23.117 18.738-41.866 41.866-41.866z" fill="#f1b986"/><path d="m397.962 251.029h.202c17.341 0 31.391-14.063 31.391-31.391 0-17.341-14.051-31.403-31.391-31.403-.226 0-.451 0-.677.012h-287.451c-.226-.012-.451-.012-.677-.012-17.341 0-31.391 14.063-31.391 31.403 0 17.329 14.051 31.391 31.391 31.391h.202" fill="#f1b986"/><path d="m390.741 106.26c-91.32-8.853-182.639-8.853-273.959 0-7.086 56.779-9.174 113.558-6.262 170.338 2.12 41.332 35.194 74.231 76.534 76.183 44.471 2.1 88.942 2.1 133.414 0 41.341-1.952 74.415-34.851 76.534-76.183 2.913-56.779.826-113.559-6.261-170.338z" fill="#f1d0a5"/><path d="m116.787 106.251c45.652-4.428 91.317-6.635 136.983-6.635-23.119 0-46.238 2.234-69.357 6.703-3.597 57.327-4.646 114.654-3.174 171.968.967 37.723 14.754 68.485 32.846 75.501-9.005-.245-18.024-.586-27.029-1.008-41.333-1.948-74.411-34.849-76.536-76.182-2.901-56.783-.817-113.565 6.267-170.347z" fill="#f1b986"/><path d="m253.761 287.753c-15.456 0-29.725-9.024-36.352-22.99-1.829-3.855-.187-8.463 3.668-10.293 3.856-1.828 8.463-.188 10.293 3.667 4.082 8.603 12.872 14.162 22.392 14.162s18.309-5.559 22.393-14.163c1.83-3.856 6.441-5.497 10.293-3.667 3.855 1.83 5.497 6.438 3.667 10.293-6.629 13.968-20.899 22.991-36.354 22.991z" fill="#da4a54"/><g fill="#454045"><path d="m186.92 189.199c-7.183 0-13.027 8.708-13.027 19.411s5.843 19.411 13.027 19.411 13.027-8.708 13.027-19.411-5.844-19.411-13.027-19.411z"/><path d="m320.604 189.199c-7.183 0-13.027 8.708-13.027 19.411s5.844 19.411 13.027 19.411 13.026-8.708 13.026-19.411-5.843-19.411-13.026-19.411z"/></g><path d="m329.823 153.476c-52.489 20.276-127.048 11.335-164.623-26.24 0 0-8.923 61.008-55.152 61.008l-20.16 6.78c-53.844-211.346 60.999-154.875 60.999-154.875 10.842-21.012 26.635-29.71 43.135-31.809 1.453-.179 2.906-.314 4.367-.404.117 0 .233-.009.35-.018 11.622-.619 23.388 1.74 33.845 5.103 3.641 1.175 7.129 2.466 10.394 3.802 13.138 5.372 22.707 11.407 24.715 12.698.26.179.395.269.395.269 11.819-15.639 23.092-29.79 35.486-29.79 5.085 0 8.6 1.946 10.959 5.058 8.941 11.721 1.596 39.907 1.004 42.122l-.027.099c.009-.018.018-.054.036-.099l.063-.161c1.587-4 19.343-47.019 51.188-47.019 2.009 0 3.811.188 5.417.547 23.738 5.246 5.157 46.767 3.112 51.162l-.054.126c-.054.108-.09.188-.108.224 1.013-1.291 40.768-51.763 58.435-28.607.009.018.009.018.018.027 17.819 23.486-51.332 109.73-103.794 129.997z" fill="#f4dd45"/><g fill="#ecc32e"><path d="m433.599 23.451h-.009c-8.932-8.923-39.871 33.199-58.452 28.634l.135-.251c-.054.108-.09.188-.108.224 1.012-1.291 40.767-51.762 58.434-28.607z"/><path d="m372.214.547c-13.419-3.048-25.857 22.493-32.884 40.625-3.398 8.768-13.925 12.287-21.918 7.332l-1.919-1.19.018-.036.027-.099h.009l.063-.161c1.586-3.999 19.342-47.018 51.187-47.018 2.009 0 3.811.188 5.417.547z"/><path d="m194.019 8.34c-38.4 6.771-52.91 94.808-28.823 118.896 0 0-8.923 61.008-55.152 61.008l-20.16 6.78c-53.842-211.345 61-154.875 61-154.875 10.842-21.012 26.635-29.71 43.135-31.809z"/><path d="m314.532 5.058c-13.497-13.497-22.491 55.717-52.875 66.802-30.383 11.084-33.226-3.085-33.226-3.085v-.009c14.958-5.533 27.585-23.02 39.647-38.983.009.009.009.009.009.009.368-.493.735-.977 1.103-1.462.457-.619.933-1.238 1.399-1.847 10.924-14.269 21.47-26.483 32.985-26.483 5.084 0 8.6 1.946 10.958 5.058z"/><path d="m198.764 7.927c-.126 0-.251 0-.377.009.117 0 .233-.009.35-.018z"/></g></g></svg>