<svg enable-background="new 0 0 512 512" height="512" viewBox="0 0 512 512" width="512" xmlns="http://www.w3.org/2000/svg"><g><path d="m316.513 343.221h-119.996c-46.458 0-84.12 37.662-84.12 84.12v14.214c0 13.486 130.098 70.444 143.585 70.444h1.066c13.486 0 143.585-56.958 143.585-70.444v-14.215c0-46.458-37.662-84.119-84.12-84.119z" fill="#80b4fb"/><path d="m138.574 427.34v60.245c0 13.485 10.941 24.415 24.426 24.415h-26.177c-13.495 0-24.425-10.93-24.425-24.415v-60.245c0-46.461 37.663-84.114 84.124-84.114h26.177c-46.461 0-84.125 37.653-84.125 84.114z" fill="#5490f9"/><path d="m299.91 353.677c.018.224.018.448.018.673 0 18.582-19.523 33.648-43.611 33.648s-43.62-15.066-43.62-33.648c0-.224 0-.448.018-.673" fill="#f1b986"/><path d="m169.718 441.554v23.791h44.401c23.12 0 41.863 18.743 41.863 41.863v4.79h-119.166c-13.486 0-24.419-10.933-24.419-24.419v-46.025z" fill="#f1d0a5"/><path d="m136.743 511.998h26.177c-13.448-.043-24.346-10.955-24.346-24.413v-46.031h-26.177v46.031c.001 13.458 10.888 24.37 24.346 24.413z" fill="#f1b986"/><path d="m343.312 441.554v23.791h-44.401c-23.12 0-41.863 18.743-41.863 41.863v4.79h119.166c13.486 0 24.419-10.933 24.419-24.419v-46.025z" fill="#f1d0a5"/><path d="m343.312 441.25h24.095v24.095h-24.095z" fill="#f1b986"/><path d="m343.312 425.994h24.095v15.256h-24.095z" fill="#5490f9"/><path d="m298.914 465.342h19.388c-23.127 0-41.866 18.749-41.866 41.866v4.79h-19.388v-4.79c0-23.117 18.739-41.866 41.866-41.866z" fill="#f1b986"/><path d="m455.678 202.371c0-111.766-89.399-202.371-199.678-202.371s-199.678 90.605-199.678 202.371 89.399 120.199 199.678 120.199 199.678-8.432 199.678-120.199z" fill="#665e66"/><path d="m253.378 322.562c-109.066-.134-197.055-9.307-197.055-120.191 0-111.762 89.405-202.367 199.68-202.367-56.127 0-101.622 90.605-101.622 202.367-.001 110.025 44.087 119.914 98.997 120.191z" fill="#454045"/><path d="m399.391 276.4c-2.123 41.285-35.158 74.15-76.452 76.094-35.418 1.675-70.836 2.006-106.254 1.012h-.063c-8.984-.251-17.96-.591-26.944-1.012-41.285-1.944-74.329-34.809-76.443-76.094-1.559-30.303-1.684-60.615-.376-90.927v-.009c.394-9.441.941-18.882 1.621-28.324 6.548-31.1 32.175-74.332 67.978-89.918 1.057-.457 2.123-.914 3.198-1.353 14.484-5.939 30.554-10.104 47.636-12.093 7.489-.896 15.174-1.344 23.021-1.344 17.404 0 34.083 3.886 49.517 7.997v-1.637c48.317 12.845 84.424 60.627 92.316 98.455 0 .009 0 .018.009.027 2.858 39.709 3.27 79.417 1.236 119.126z" fill="#f1d0a5"/><path d="m216.686 353.505h-.063c-8.984-.251-17.96-.591-26.944-1.012-41.285-1.944-74.329-34.809-76.443-76.094-2.042-39.744-1.621-79.506 1.245-119.26 6.548-31.1 32.175-57.686 67.978-73.272 1.057-.457 2.123-.914 3.198-1.353-2.454 59.854-3.036 146.562-1.783 195.577.968 37.677 14.735 68.401 32.812 75.414z" fill="#f1b986"/><path d="m305.83 75.43v.009c-23.791 40.801-80.832 94.439-103.53 81.629-8.304-4.694-7.22-14.359-2.535-24.758-.672 1.173-15.326 26.586-35.436 43.524-15.263 12.863-33.662 20.853-51.47 9.638v-.009c.394-9.441.941-18.882 1.621-28.324 6.548-31.1 32.175-57.686 67.978-73.272 1.057-.457 2.123-.914 3.198-1.353 14.484-5.939 30.554-10.104 47.636-12.093 7.489-.896 15.174-1.344 23.021-1.344 17.405.002 34.084 2.241 49.517 6.353z" fill="#665e66"/><path d="m164.329 175.834c-15.263 12.863-33.662 20.853-51.47 9.638v-.009c.394-9.441.941-18.882 1.621-28.324 6.548-31.1 32.175-57.686 67.978-73.272 1.057-.457 2.123-.914 3.198-1.353 14.484-5.939 30.554-10.104 47.636-12.093 7.489-.896 15.174-1.344 23.021-1.344-49.857 17.397-152.796 106.757-91.984 106.757z" fill="#454045"/><g fill="#454045"><ellipse cx="189.548" cy="208.494" rx="13.012" ry="19.389"/><ellipse cx="323.076" cy="208.494" rx="13.012" ry="19.389"/></g><g><ellipse cx="166.95" cy="255.354" fill="#df9380" rx="24.426" ry="15.489"/><ellipse cx="345.674" cy="255.354" fill="#f9a58e" rx="24.426" ry="15.489"/></g><path d="m399.767 143.946c0 4.918-.466 9.773-1.379 14.511-9.692-50.502-69.599-89.378-142.074-89.378-7.847 0-15.541.448-23.021 1.344-15.998 1.854-31.1 5.625-44.841 10.982-2.024.779-4.022 1.603-5.993 2.463-36.286 15.801-62.138 42.897-68.238 74.544-.905-4.721-1.362-9.558-1.362-14.466 0-37.783 27.894-70.854 69.599-89.001 4.318-1.881 8.787-3.601 13.383-5.142 11.707-3.959 24.275-6.79 37.451-8.321 7.48-.896 15.174-1.335 23.021-1.335 79.229-.001 143.454 46.471 143.454 103.799z" fill="#da4a54"/><path d="m195.842 49.803-7.39 31.602c-2.024.779-4.022 1.603-5.993 2.463-36.286 15.801-62.138 42.897-68.238 74.544-.905-4.721-1.362-9.558-1.362-14.466 0-37.783 27.894-70.854 69.599-89.001 4.319-1.882 8.788-3.602 13.384-5.142z" fill="#c32430"/><path d="m256.312 292.705c-15.442 0-29.697-9.016-36.318-22.968-1.83-3.855-.187-8.464 3.668-10.293 3.853-1.829 8.463-.188 10.292 3.668 4.076 8.59 12.852 14.141 22.358 14.141 9.505 0 18.281-5.551 22.358-14.141 1.83-3.855 6.438-5.497 10.293-3.667s5.497 6.438 3.667 10.293c-6.622 13.952-20.877 22.967-36.318 22.967z" fill="#da4a54"/></g></svg>